<svg width="250" height="250" viewBox="0 0 250 250" fill="none" xmlns="http://www.w3.org/2000/svg">
<path d="M57.5002 106.045C57.5002 106.045 44.0427 66.2246 90.9827 71.0847C137.923 75.9447 115.495 58.3197 133.233 47.3822C150.97 36.4447 203.233 70.4722 181.368 103.292C159.503 136.112 216.31 106.09 228.16 155.445C235.473 185.902 217.33 208.32 202.363 221.027" stroke="#CCDDE2" stroke-width="1.37297" stroke-miterlimit="10"/>
<path d="M206.94 182.975C203.413 162.548 190.923 144.268 170.63 137.725C165.439 136.061 160.131 134.787 154.75 133.913V133.94C154.47 135.636 153.805 137.246 152.808 138.645C150.693 141.543 147.778 143.923 144.403 145.163C140.958 146.438 136.69 146.603 133.493 144.598C131.568 143.393 129.7 141.27 129.363 138.98C128.978 136.4 130.293 133.958 132.143 132.253C116.463 132.38 101.713 134.96 89.8929 137.898C90.3027 139.613 90.8699 141.287 91.5879 142.898C92.5927 145.144 94.0124 147.179 95.7729 148.898C97.9687 146.723 99.8912 144.288 101.498 141.648C103.035 142.151 104.39 143.095 105.395 144.362C106.4 145.629 107.011 147.164 107.15 148.775V148.858C107.77 154.71 102.135 159.108 97.4004 161.813C91.9304 164.958 85.8329 167.313 79.8429 169.27C77.3729 170.08 74.1629 170.77 71.5554 169.925C71.2747 169.836 71.0007 169.726 70.7354 169.598C68.1354 168.323 66.3954 165.65 65.0379 163.208C61.1704 156.27 58.6554 148.708 56.9504 140.945C45.1179 142.458 43.7629 134.445 43.0604 132.48L32.9379 160.778C32.4069 162.812 32.3497 164.941 32.7699 167C33.1904 169.06 34.0777 170.996 35.3634 172.659C36.6489 174.323 38.2989 175.669 40.1862 176.595C42.0737 177.521 44.1482 178.002 46.2504 178H88.1554L107.19 226.825L112.585 240.683H143.4C140.9 240.683 139.533 240.073 138.54 239.078C137.515 238.052 136.938 236.663 136.935 235.213C136.935 232.213 139.398 229.753 143.4 229.753H143.683C143.38 229.753 143.09 229.725 142.788 229.698C142.975 229.678 143.161 229.647 143.345 229.605C143.147 229.601 142.949 229.586 142.753 229.56C144.558 229.347 146.231 228.506 147.479 227.185C148.727 225.863 149.471 224.145 149.58 222.33C149.585 222.236 149.585 222.142 149.58 222.048V221.903C149.537 220.043 148.826 218.26 147.577 216.881C146.328 215.501 144.625 214.617 142.778 214.39C142.988 214.373 143.188 214.355 143.39 214.355C143.208 214.31 143.005 214.283 142.815 214.255C143.115 214.228 143.418 214.208 143.708 214.208L166.253 214.328L170.4 214.345H175.323C175.55 214.345 175.78 214.345 175.998 214.373L183.31 214.41L188.195 214.438C190.237 214.455 192.189 215.28 193.624 216.732C195.059 218.185 195.86 220.146 195.853 222.188C195.85 223.342 195.583 224.481 195.07 225.515C197.166 225.247 199.11 224.278 200.585 222.765C204.103 219.173 205.618 213.795 206.665 209.015C208.518 200.5 208.408 191.528 206.94 182.975ZM149.98 183.55C145.733 190.088 138.5 189.5 138.5 189.5C138.5 189.5 137.9 190.085 136.5 187.595C135.1 185.105 131.113 183.403 131.113 183.403C130.795 185.903 130.138 189.703 123.613 184.778C117.088 179.853 119.055 172.673 119.613 168.88C120.17 165.088 122.393 163.83 122.393 163.83L125.018 162.445C125.018 162.445 117.425 160.493 117.06 160.42C116.695 160.348 109.933 154.685 116.795 153.19C123.658 151.695 134.355 157.64 136.423 158.815C138.49 159.99 150.573 170.21 150.573 170.21C150.573 170.21 154.25 177.023 149.98 183.55Z" fill="#353642"/>
<path d="M56.9399 140.95C56.9399 140.95 62.6624 140.255 64.8049 136.17L62.9374 146.647C62.9374 146.647 85.7024 138.897 89.8774 137.897C89.8774 137.897 91.2224 146.57 96.5774 148.897L102.102 141.872C102.102 141.872 109.03 143.622 107.135 153.062C105.24 162.502 79.0299 170.392 74.5849 170.21C70.1399 170.027 65.3549 167.292 60.4549 152.595L56.9399 140.95Z" fill="#353642"/>
<path d="M66.2625 117.61C67.7125 119.97 69.17 122.325 70.675 124.65C71.6025 126.083 73.2925 128.125 71.495 129.623C70.91 130.071 70.2035 130.333 69.4675 130.373C68.3125 130.475 67.1 130.198 66.3975 129.205L62.8975 123.405C62.2 122.248 61.0922 121.397 59.7952 121.02C58.498 120.643 57.1065 120.768 55.8975 121.37" stroke="black" stroke-width="1.37297" stroke-miterlimit="10"/>
<path d="M79.5004 125.249C80.4154 127.424 79.7954 128.827 78.7254 129.532C76.9754 130.679 74.6329 130.129 73.3929 128.454L66.2754 117.622" stroke="black" stroke-width="1.37297" stroke-miterlimit="10"/>
<path d="M72.2879 114.46C74.8779 117.61 78.1454 123.46 79.9529 125.903C81.7604 128.345 84.5554 126.873 84.5554 126.873C86.8254 125.65 86.4404 123.623 85.4479 121.16C83.0029 115.115 79.5129 111.095 75.6204 108.46C63.5579 100.3 51.1829 106.32 47.5004 120.405L32.9379 160.778C32.4069 162.812 32.3497 164.941 32.7699 167C33.1904 169.06 34.0777 170.996 35.3634 172.659C36.6489 174.323 38.2989 175.669 40.1862 176.595C42.0737 177.521 44.1482 178.001 46.2504 178H88.1554L112.593 240.685" stroke="black" stroke-width="1.37297" stroke-miterlimit="10"/>
<path d="M87.2504 118.387C90.2504 117.347 90.1129 112.562 85.8554 110.947C81.1529 109.162 72.8029 106.637 70.7054 106.007C70.6924 105.997 70.6766 105.991 70.6604 105.99C70.5129 105.945 70.4104 105.907 70.3304 105.89L70.2129 105.852" stroke="black" stroke-width="1.37297" stroke-miterlimit="10"/>
<path d="M131.575 166.23C128.95 163.075 121.765 161.287 117.075 160.422C116.287 160.274 115.568 159.874 115.027 159.282C114.486 158.69 114.152 157.938 114.075 157.14C114.021 156.601 114.083 156.057 114.258 155.545C114.537 154.758 115.073 154.088 115.779 153.642C116.485 153.196 117.32 153 118.15 153.085C126.15 153.895 134.4 156.412 140.503 161.835C140.503 161.835 170.085 184.41 173.618 186.607C175.075 187.492 176.435 186.447 175.448 185.057L175.138 184.527C173.399 181.543 171.341 178.757 169 176.217" stroke="black" stroke-width="1.37297" stroke-miterlimit="10"/>
<path d="M132.122 132.25C94.9175 132.56 62.9375 146.645 62.9375 146.645L66.13 128.75" stroke="black" stroke-width="1.37297" stroke-miterlimit="10"/>
<path d="M189.908 229.642C189.908 229.642 185.855 228.725 184.778 231.97C183.7 235.215 182.575 240.377 190.323 240.682C198.07 240.987 193.52 239.465 193.073 236.957C192.625 234.45 189.908 229.642 189.908 229.642Z" fill="#353642"/>
<path d="M128 170.348C128 170.348 123.628 167.033 119.69 170.393C119.525 170.539 119.38 170.707 119.26 170.893" stroke="black" stroke-width="1.37297" stroke-miterlimit="10"/>
<g opacity="0.77">
<path opacity="0.77" d="M73.3774 128.443C74.6274 130.12 76.9674 130.668 78.7099 129.518C79.7674 128.818 80.3874 127.423 79.4949 125.268C79.6574 125.505 79.8049 125.715 79.9499 125.908C81.7549 128.36 84.5524 126.883 84.5524 126.883C86.8224 125.66 86.4399 123.633 85.4474 121.168C84.4762 118.726 83.2019 116.416 81.6549 114.293C82.6674 113.345 83.8699 112.388 85.1374 112.808C86.5049 113.263 86.8874 114.978 87.0424 116.408C87.1149 117.073 87.1874 117.73 87.2599 118.395L88.3549 128.185C88.7199 131.435 89.0849 134.733 89.8774 137.905C90.2872 139.62 90.8544 141.294 91.5724 142.905C92.5772 145.151 93.9969 147.187 95.7574 148.905C97.9532 146.73 99.8756 144.295 101.482 141.655C103.019 142.158 104.375 143.102 105.38 144.369C106.385 145.637 106.995 147.171 107.135 148.783V148.865C107.755 154.718 102.12 159.115 97.3849 161.82C91.9149 164.965 85.8174 167.32 79.8274 169.278C77.3574 170.088 74.1474 170.778 71.5399 169.933C71.2592 169.843 70.9852 169.734 70.7199 169.605C68.1199 168.33 66.3799 165.658 65.0224 163.215C58.5224 151.528 55.8224 138.108 54.3999 124.818C57.2449 124.425 60.0799 123.988 62.8799 123.385C62.8799 123.385 62.8799 123.405 62.8974 123.413L66.1249 128.765L66.3899 129.21C67.0899 130.21 68.3024 130.478 69.4599 130.378C70.1959 130.341 70.9029 130.079 71.4849 129.628C73.2799 128.128 71.5949 126.093 70.6649 124.66" fill="white"/>
<path opacity="0.77" d="M73.3774 128.443C74.6274 130.12 76.9674 130.668 78.7099 129.518C79.7674 128.818 80.3874 127.423 79.4949 125.268C79.6574 125.505 79.8049 125.715 79.9499 125.908C81.7549 128.36 84.5524 126.883 84.5524 126.883C86.8224 125.66 86.4399 123.633 85.4474 121.168C84.4762 118.726 83.2019 116.416 81.6549 114.293C82.6674 113.345 83.8699 112.388 85.1374 112.808C86.5049 113.263 86.8874 114.978 87.0424 116.408C87.1149 117.073 87.1874 117.73 87.2599 118.395L88.3549 128.185C88.7199 131.435 89.0849 134.733 89.8774 137.905C90.2872 139.62 90.8544 141.294 91.5724 142.905C92.5772 145.151 93.9969 147.187 95.7574 148.905C97.9532 146.73 99.8756 144.295 101.482 141.655C103.019 142.158 104.375 143.102 105.38 144.369C106.385 145.637 106.995 147.171 107.135 148.783V148.865C107.755 154.718 102.12 159.115 97.3849 161.82C91.9149 164.965 85.8174 167.32 79.8274 169.278C77.3574 170.088 74.1474 170.778 71.5399 169.933C71.2592 169.843 70.9852 169.734 70.7199 169.605C68.1199 168.33 66.3799 165.658 65.0224 163.215C58.5224 151.528 55.8224 138.108 54.3999 124.818C57.2449 124.425 60.0799 123.988 62.8799 123.385C62.8799 123.385 62.8799 123.405 62.8974 123.413L66.1249 128.765L66.3899 129.21C67.0899 130.21 68.3024 130.478 69.4599 130.378C70.1959 130.341 70.9029 130.079 71.4849 129.628C73.2799 128.128 71.5949 126.093 70.6649 124.66" fill="#3FBDF1"/>
<path opacity="0.77" d="M74.1446 129.235C75.2521 130.735 77.1446 130.545 78.7096 129.518C79.6546 128.893 80.4296 129.075 79.6321 127.148C79.7796 127.358 79.7996 126.648 79.9296 126.805C81.5421 128.995 79.9496 125.9 79.9496 125.9C82.1996 128.743 87.0971 126.065 86.1996 123.868C85.2496 121.5 84.2496 118 82.9821 116.25C83.9821 115.305 83.7896 115.445 85.0621 116.198C85.4039 116.417 85.6901 116.713 85.8979 117.063C86.1059 117.412 86.2296 117.805 86.2596 118.21C86.3621 119.163 86.4646 120.075 86.5671 121.005L87.5421 129.755C87.8696 132.663 88.1946 135.6 88.9021 138.43C89.2679 139.96 89.7751 141.453 90.4171 142.89C91.3121 144.868 94.1871 148.16 95.7571 149.668C97.7096 147.73 100.05 144.168 101.482 141.8C104.232 142.645 104.112 145.275 104.307 148.148V148.223C104.862 153.445 99.8321 157.368 95.6171 159.785C90.7321 162.593 85.2896 164.693 79.9421 166.443C77.7371 167.168 74.8721 167.793 72.5446 167.028C72.2936 166.948 72.0486 166.85 71.8121 166.735C69.4921 165.595 67.9371 163.213 66.7246 161.03C61.4171 151.498 58.9546 140.675 57.5996 129.825C57.5001 129.013 57.7199 128.195 58.2124 127.542C58.7049 126.889 59.4316 126.452 60.2396 126.325C61.7621 126.075 63.2796 125.825 64.7871 125.49L64.8296 125.51L67.7096 130.288C68.3371 131.175 68.4396 130.48 69.4721 130.39C70.1246 130.333 71.3896 130.205 71.8946 129.783C73.4971 128.448 72.5921 127.895 71.7621 126.618" fill="#3FBDF1"/>
</g>
<path d="M127.473 175.173C127.473 175.173 119.17 172.443 119.045 177.033" stroke="black" stroke-width="1.37297" stroke-miterlimit="10"/>
<path opacity="0.54" d="M53.1553 221.929L36.8728 180.214C36.6711 179.407 36.6561 178.565 36.8286 177.751C37.0013 176.937 37.3573 176.173 37.8693 175.517C38.3816 174.861 39.0363 174.331 39.7843 173.966C40.5321 173.601 41.3533 173.412 42.1853 173.412H106.86C108.313 173.412 109.723 173.9 110.863 174.799C112.004 175.698 112.809 176.955 113.148 178.367L130.973 220.072C131.166 220.876 131.173 221.714 130.996 222.522C130.818 223.33 130.46 224.087 129.948 224.737C129.435 225.387 128.783 225.912 128.038 226.273C127.294 226.634 126.478 226.822 125.65 226.822H59.4278C57.9863 226.823 56.5861 226.342 55.4496 225.455C54.3131 224.569 53.5056 223.328 53.1553 221.929Z" fill="white"/>
<path d="M130.175 182.209C130.175 182.209 131.523 183.444 131.01 185.209C130.63 186.517 129.33 187.342 128.043 186.894C123.943 185.477 120.25 183.069 119.35 178.977C118.925 176.905 118.833 174.778 119.078 172.677C119.275 170.729 119.563 168.627 120.218 166.774C121.218 163.929 124.28 161.947 127.253 163.317" stroke="black" stroke-width="1.37297" stroke-miterlimit="10"/>
<path d="M53.1553 221.929L36.8728 180.214C36.6711 179.407 36.6561 178.565 36.8286 177.751C37.0013 176.937 37.3573 176.173 37.8693 175.517C38.3816 174.861 39.0363 174.331 39.7843 173.966C40.5321 173.601 41.3533 173.412 42.1853 173.412H106.86C108.313 173.412 109.723 173.9 110.863 174.799C112.004 175.698 112.809 176.955 113.148 178.367L130.973 220.072C131.166 220.876 131.173 221.714 130.996 222.522C130.818 223.33 130.46 224.087 129.948 224.737C129.435 225.387 128.783 225.912 128.038 226.273C127.294 226.634 126.478 226.822 125.65 226.822H59.4278C57.9863 226.823 56.5861 226.342 55.4496 225.455C54.3131 224.569 53.5056 223.328 53.1553 221.929Z" fill="#3FBDF1"/>
<path d="M53.1553 221.929L36.8728 180.214C36.6711 179.407 36.6561 178.565 36.8286 177.751C37.0013 176.937 37.3573 176.173 37.8693 175.517C38.3816 174.861 39.0363 174.331 39.7843 173.966C40.5321 173.601 41.3533 173.412 42.1853 173.412H106.86C108.313 173.412 109.723 173.9 110.863 174.799C112.004 175.698 112.809 176.955 113.148 178.367L130.973 220.072C131.166 220.876 131.173 221.714 130.996 222.522C130.818 223.33 130.46 224.087 129.948 224.737C129.435 225.387 128.783 225.912 128.038 226.273C127.294 226.634 126.478 226.822 125.65 226.822H59.4278C57.9863 226.823 56.5861 226.342 55.4496 225.455C54.3131 224.569 53.5056 223.328 53.1553 221.929Z" stroke="black" stroke-width="1.37297" stroke-linecap="square" stroke-linejoin="round"/>
<path d="M55.5378 220.249L40.5153 181.749C40.3296 181.005 40.3161 180.227 40.4756 179.477C40.6351 178.726 40.9636 178.021 41.4363 177.416C41.9088 176.812 42.5131 176.322 43.2028 175.986C43.8928 175.649 44.6503 175.474 45.4178 175.474H105.083C106.422 175.474 107.723 175.925 108.775 176.754C109.828 177.583 110.57 178.742 110.883 180.044L127.33 218.522C127.508 219.264 127.515 220.037 127.351 220.783C127.187 221.528 126.856 222.227 126.383 222.826C125.911 223.425 125.308 223.91 124.621 224.243C123.935 224.576 123.181 224.749 122.418 224.749H61.3228C59.9951 224.751 58.7051 224.308 57.6574 223.493C56.6094 222.678 55.8636 221.537 55.5378 220.249Z" fill="#3FBDF1"/>
<path d="M183.23 214.21L194.67 240.682" stroke="black" stroke-width="1.37297" stroke-miterlimit="10"/>
<path d="M237.5 240.682H12.5" stroke="black" stroke-width="1.37297" stroke-miterlimit="10"/>
<path d="M131.093 121.202C129.238 123.035 126.468 123.032 124.89 121.337" stroke="black" stroke-width="1.37297" stroke-miterlimit="10"/>
<path d="M81.6553 114.285C82.6678 113.337 83.8703 112.38 85.1378 112.8C86.5053 113.255 86.8878 114.97 87.0428 116.4C87.481 120.33 87.9185 124.256 88.3553 128.177C88.9103 133.177 89.4953 138.297 91.5728 142.892C92.5775 145.138 93.9973 147.174 95.7578 148.892" stroke="black" stroke-width="1.37297" stroke-miterlimit="10"/>
<path d="M107.135 148.862V148.78C106.996 147.168 106.385 145.634 105.38 144.366C104.375 143.099 103.02 142.155 101.483 141.652C99.8761 144.292 97.9536 146.727 95.7578 148.902C90.0011 154.626 82.6058 158.417 74.5978 159.75C74.9828 161.282 75.7753 162.677 76.3228 164.152C76.8703 165.627 77.1428 167.335 76.4778 168.757C75.6378 170.572 73.2278 170.335 71.5528 169.932C71.5353 169.932 71.5253 169.932 71.5078 169.932" stroke="black" stroke-width="1.37297" stroke-miterlimit="10"/>
<path d="M62.8853 123.383C60.0853 123.985 57.2503 124.423 54.4053 124.815C55.8278 138.105 58.5178 151.525 65.0278 163.213C66.3853 165.655 68.1253 168.328 70.7253 169.603C70.9905 169.731 71.2645 169.841 71.5453 169.93C74.1528 170.788 77.3628 170.085 79.8328 169.275C85.8328 167.315 91.9203 164.963 97.3903 161.818C102.113 159.11 107.748 154.715 107.14 148.863C107.082 148.218 106.95 147.582 106.748 146.968" stroke="black" stroke-width="1.37297" stroke-miterlimit="10"/>
<path d="M109.705 96.8719C110.125 98.6214 111.082 100.195 112.444 101.371C113.805 102.547 115.501 103.266 117.293 103.427C117.441 102.705 117.764 102.031 118.233 101.462C120.233 99.1047 121.085 103.527 127.483 100.352C136.348 95.9422 139.713 98.4722 139.713 98.4722C140.008 98.6922 139.963 100.722 140.013 101.092C140.263 103.199 140.488 105.297 140.735 107.402C140.885 108.687 141.033 109.962 141.173 111.237C141.293 111.02 141.427 110.81 141.573 110.609C142.38 107.752 143.823 104.377 146.933 105.83C147.562 106.137 148.111 106.588 148.533 107.147C150.595 109.857 149.033 112.474 146.875 114.412C146.334 115.013 145.73 115.554 145.073 116.025C145.428 116.76 146.878 119.677 146.878 119.687C147.028 119.982 152.095 114.247 152.473 113.622C153.037 112.091 153.339 110.476 153.368 108.845C153.45 102.137 150.72 94.3294 145.288 90.4819C143.94 89.5294 144.37 88.6119 144.288 87.3169C144.282 87.2469 144.255 87.1804 144.211 87.1259C144.166 87.0714 144.106 87.0317 144.039 87.0119C143.972 86.9922 143.9 86.9934 143.833 87.0152C143.766 87.0372 143.708 87.0787 143.665 87.1347C141.963 89.0947 137.748 88.8997 137.748 88.8997C123.118 85.2347 118.2 91.7397 115.248 92.8997C114.043 93.3559 112.717 93.3779 111.498 92.9622C111.426 93.3657 111.245 93.7419 110.975 94.0504C110.705 94.3589 110.356 94.5877 109.965 94.7122L110.04 95.3894C110.104 95.9077 109.985 96.4317 109.705 96.8719Z" fill="#3FBDF1"/>
<path d="M117.303 103.438C115.511 103.277 113.815 102.558 112.454 101.382C111.093 100.206 110.135 98.6322 109.715 96.8829C109.551 96.2119 109.447 95.5274 109.405 94.8379L109.52 94.8254C109.678 94.8137 109.832 94.7799 109.98 94.7254C110.371 94.6009 110.72 94.3722 110.99 94.0637C111.26 93.7554 111.441 93.3789 111.513 92.9754C111.559 92.7517 111.568 92.5219 111.54 92.2954L111.165 88.9854C111.165 88.9854 113.81 90.9529 116.745 89.8029C119.68 88.6529 124.608 82.1479 139.245 85.8029C139.245 85.8029 142.55 85.9979 144.245 84.0379C144.288 83.9819 144.347 83.9404 144.413 83.9187C144.48 83.8967 144.552 83.8957 144.619 83.9154C144.687 83.9352 144.747 83.9749 144.791 84.0292C144.835 84.0837 144.862 84.1504 144.868 84.2204C144.955 85.5179 145.435 86.4354 146.785 87.3854C152.218 91.2354 154.948 99.0404 154.863 105.748C154.838 108.53 153.913 111.278 152.485 113.635C152.108 114.26 147.04 119.995 146.89 119.7C146.89 119.7 145.44 116.773 145.085 116.038L145 115.875L145.163 115.768C145.766 115.358 146.343 114.91 146.888 114.425C149.043 112.488 150.608 109.87 148.545 107.16C148.123 106.601 147.575 106.15 146.945 105.843C143.825 104.39 142.393 107.765 141.585 110.623C141.429 111.169 141.332 111.731 141.298 112.298C141.26 111.948 141.223 111.61 141.185 111.26C141.045 109.985 140.898 108.71 140.748 107.425C140.498 105.32 140.263 103.223 140.025 101.115C139.988 100.755 140.025 98.7154 139.725 98.4954C139.725 98.4954 136.358 95.9654 127.495 100.375C121.098 103.55 120.245 99.1254 118.245 101.485C117.777 102.054 117.454 102.729 117.305 103.45C117.26 103.682 117.23 103.917 117.218 104.153C117.213 104.183 117.213 104.215 117.218 104.245C117.188 104.763 117.178 105.278 117.165 105.783C117.118 110.655 117.653 115.745 119.565 120.27C121.89 125.755 128.043 131.165 134.44 128.608C136.44 127.805 138.233 126.513 139.873 125.14" stroke="black" stroke-width="1.37297" stroke-miterlimit="10"/>
<path d="M121.681 115.321C122.317 115.108 122.624 114.312 122.366 113.542C122.109 112.772 121.384 112.32 120.748 112.533C120.111 112.746 119.804 113.543 120.062 114.313C120.32 115.083 121.044 115.534 121.681 115.321Z" fill="black"/>
<path d="M131.2 115.017C131.836 114.804 132.143 114.007 131.885 113.237C131.628 112.467 130.903 112.016 130.267 112.229C129.63 112.442 129.323 113.238 129.581 114.008C129.838 114.778 130.563 115.23 131.2 115.017Z" fill="black"/>
<path d="M127.56 116.665C127.56 116.665 124.393 118.463 124.2 116.598C124.14 116.023 123.365 110.39 123.365 110.39C123.365 110.39 120.805 107.678 116.883 109.683" stroke="black" stroke-width="1.37297" stroke-miterlimit="10"/>
<path d="M126.848 108.812C126.848 108.812 131.963 106.257 135.348 109.94" stroke="black" stroke-width="1.37297" stroke-miterlimit="10"/>
<path d="M131.538 129.235L132.125 132.25C130.273 133.958 128.963 136.405 129.345 138.983C129.685 141.268 131.555 143.395 133.473 144.593C136.678 146.593 140.94 146.435 144.39 145.163C147.763 143.913 150.68 141.54 152.795 138.645C153.791 137.246 154.455 135.637 154.735 133.943V133.913" stroke="black" stroke-width="1.37297" stroke-miterlimit="10"/>
<path d="M132.125 132.25L133.27 137.695" stroke="black" stroke-width="1.37297" stroke-miterlimit="10"/>
<path d="M148.318 118.388L150.048 129.875C150.218 131 150.787 132.026 151.65 132.766C152.513 133.507 153.613 133.914 154.75 133.913C160.135 134.785 165.446 136.059 170.64 137.723C190.933 144.268 203.423 162.548 206.95 182.973C208.418 191.525 208.528 200.495 206.685 209C205.638 213.788 204.123 219.165 200.605 222.75C196.038 227.425 189.028 225.5 183.63 223.388C166.873 216.87 152.935 205.275 140.9 192C134.465 184.9 126.15 179.21 126.15 179.21" stroke="black" stroke-width="1.37297" stroke-miterlimit="10"/>
<path d="M61.075 211.633C59.195 211.615 57.5575 210.098 57.135 207.985C56.3 203.83 56.08 197.405 62.1725 196.003C69.785 194.253 75.64 202.543 78.51 207.783C79.475 209.533 78.3825 211.783 76.585 211.783L61.075 211.633Z" fill="#D7E8F0"/>
<path d="M63.5883 192.475C65.2043 191.399 65.2293 188.596 63.6435 186.213C62.058 183.83 59.4625 182.77 57.8463 183.846C56.23 184.921 56.2053 187.725 57.7908 190.107C59.3765 192.49 61.972 193.55 63.5883 192.475Z" fill="#D7E8F0"/>
<path d="M188.693 229.779C188.575 229.797 188.443 229.814 188.328 229.842H188.283L170.5 229.749L143.818 229.612C143.715 229.612 143.615 229.612 143.515 229.612C143.317 229.607 143.119 229.592 142.923 229.567C144.731 229.357 146.406 228.516 147.655 227.192C148.904 225.868 149.646 224.146 149.75 222.329C149.755 222.235 149.755 222.141 149.75 222.047V221.902C149.743 220.124 149.124 218.403 147.996 217.028C146.869 215.654 145.302 214.709 143.56 214.354C143.378 214.309 143.178 214.282 142.985 214.254C143.288 214.227 143.588 214.207 143.88 214.207L166.423 214.327L170.573 214.344L176.17 214.372C178.087 214.547 179.869 215.43 181.169 216.85C182.469 218.269 183.192 220.122 183.198 222.047C183.198 222.41 183.171 222.773 183.115 223.132C182.849 224.964 181.934 226.64 180.536 227.854C179.139 229.069 177.352 229.741 175.5 229.749H189.045C188.265 229.749 188.483 229.749 188.693 229.779Z" fill="white"/>
<path d="M152.623 239.078C153.131 239.589 153.735 239.994 154.401 240.269C155.066 240.545 155.78 240.685 156.5 240.683H143.405C140.905 240.683 139.54 240.073 138.545 239.078C137.523 238.051 136.947 236.662 136.943 235.213C136.943 232.213 139.403 229.753 143.405 229.753H156.5C155.419 229.751 154.362 230.07 153.463 230.67C152.563 231.27 151.862 232.123 151.448 233.122C151.034 234.121 150.926 235.22 151.137 236.28C151.349 237.341 151.87 238.314 152.635 239.078H152.623Z" fill="#D7E8F0"/>
<path d="M195.87 222.184C195.867 223.339 195.598 224.478 195.085 225.512C194.719 226.294 194.216 227.004 193.6 227.609C192.585 228.615 191.31 229.319 189.918 229.642C189.344 229.774 188.757 229.842 188.168 229.842C188.288 229.814 188.418 229.797 188.533 229.779C188.323 229.759 188.105 229.752 188.888 229.752H175.34C177.193 229.745 178.982 229.072 180.38 227.857C181.779 226.642 182.694 224.965 182.96 223.132C183.016 222.773 183.043 222.41 183.043 222.047C183.037 220.122 182.313 218.269 181.013 216.849C179.713 215.43 177.93 214.546 176.013 214.372L183.325 214.409L188.21 214.437C190.252 214.454 192.203 215.279 193.639 216.73C195.074 218.182 195.876 220.143 195.87 222.184Z" fill="#3FBDF1"/>
<path d="M195.87 222.182C195.855 224.225 195.031 226.178 193.578 227.615C192.126 229.051 190.163 229.853 188.12 229.845L143.64 229.615C143.343 229.615 143.045 229.592 142.745 229.562C144.62 229.35 146.352 228.457 147.613 227.053C148.873 225.649 149.575 223.831 149.585 221.944C149.595 220.057 148.912 218.232 147.666 216.815C146.42 215.398 144.698 214.487 142.825 214.255C143.122 214.224 143.421 214.209 143.72 214.21L188.2 214.44C190.243 214.454 192.196 215.276 193.634 216.727C195.071 218.178 195.875 220.14 195.87 222.182Z" stroke="black" stroke-width="1.37297" stroke-linecap="square" stroke-linejoin="round"/>
<path d="M183.038 222.045C183.034 224.087 182.221 226.044 180.777 227.488C179.333 228.933 177.375 229.746 175.333 229.75H143.686C143.387 229.748 143.088 229.731 142.791 229.7C144.664 229.477 146.391 228.575 147.644 227.165C148.897 225.754 149.589 223.933 149.589 222.046C149.589 220.159 148.897 218.338 147.644 216.927C146.391 215.517 144.664 214.615 142.791 214.392C143.088 214.365 143.388 214.345 143.686 214.345H175.333C177.374 214.349 179.331 215.162 180.775 216.605C182.218 218.048 183.032 220.003 183.038 222.045Z" stroke="black" stroke-width="1.37297" stroke-linecap="square" stroke-linejoin="round"/>
<path d="M136.943 235.214C136.943 235.931 137.084 236.641 137.358 237.304C137.633 237.966 138.035 238.568 138.543 239.074C139.543 240.074 140.9 240.682 143.403 240.682H188.885C188.103 240.682 188.315 240.667 188.528 240.647C187.197 240.49 185.97 239.851 185.08 238.849C184.189 237.848 183.697 236.554 183.697 235.214C183.697 233.874 184.189 232.581 185.08 231.58C185.97 230.578 187.197 229.939 188.528 229.782C188.315 229.762 188.103 229.747 188.885 229.747H143.403C139.398 229.749 136.943 232.209 136.943 235.214Z" stroke="black" stroke-width="1.37297" stroke-linecap="square" stroke-linejoin="round"/>
<path d="M151.018 235.214C151.021 236.664 151.598 238.052 152.623 239.077C153.647 240.102 155.036 240.679 156.485 240.682H187.893C188.103 240.682 188.315 240.667 188.528 240.647C187.197 240.49 185.97 239.851 185.079 238.849C184.189 237.848 183.697 236.554 183.697 235.214C183.697 233.874 184.189 232.581 185.079 231.58C185.97 230.578 187.197 229.939 188.528 229.782C188.315 229.762 188.103 229.747 187.893 229.747H156.485C155.036 229.751 153.648 230.328 152.623 231.353C151.599 232.377 151.022 233.766 151.018 235.214Z" stroke="black" stroke-width="1.37297" stroke-linecap="square" stroke-linejoin="round"/>
<path d="M100.105 193.5H86.0748C85.4328 193.499 84.8051 193.311 84.2681 192.959C83.7311 192.608 83.3078 192.108 83.0498 191.52C82.9503 191.301 82.9076 191.061 82.9261 190.821C82.9443 190.581 83.0231 190.35 83.1548 190.149C83.2866 189.948 83.4671 189.783 83.6796 189.671C83.8921 189.558 84.1293 189.501 84.3698 189.505H99.2848C98.5823 190.687 98.9398 192.33 100.105 193.5Z" fill="#D7E8F0"/>
<path d="M109.178 192.054C109.177 192.437 109.025 192.803 108.754 193.074C108.484 193.344 108.118 193.496 107.735 193.497H100.105C98.9402 192.329 98.5827 190.687 99.2852 189.497H106.023C106.664 189.497 107.291 189.683 107.829 190.033C108.366 190.383 108.79 190.881 109.05 191.467C109.131 191.653 109.174 191.852 109.178 192.054Z" fill="#3FBDF1"/>
<path d="M105.668 193.5C105.628 193.576 105.582 193.649 105.53 193.717C104.53 195.085 102.358 195.217 100.67 193.982C100.471 193.835 100.282 193.674 100.105 193.5C98.9402 192.332 98.5827 190.69 99.2852 189.5C99.3247 189.423 99.3707 189.351 99.4227 189.282C100.423 187.905 102.585 187.782 104.273 189.007C104.476 189.159 104.667 189.326 104.845 189.507C106 190.67 106.36 192.302 105.668 193.5Z" fill="white"/>
<path d="M112.705 200.863C112.702 201.245 112.549 201.612 112.277 201.881C112.005 202.151 111.638 202.303 111.255 202.303H96.5327C97.2427 201.108 96.8877 199.478 95.7202 198.303H109.55C110.192 198.303 110.82 198.49 111.358 198.841C111.896 199.192 112.319 199.692 112.578 200.28C112.66 200.463 112.703 200.662 112.705 200.863Z" fill="#3FBDF1"/>
<path d="M96.5327 202.302H89.6052C88.964 202.302 88.3362 202.116 87.7987 201.767C87.2612 201.417 86.8369 200.918 86.5777 200.332C86.4959 200.148 86.4527 199.95 86.4502 199.749C86.4499 199.56 86.4869 199.373 86.5592 199.198C86.6314 199.023 86.7375 198.864 86.8712 198.73C87.005 198.597 87.164 198.491 87.3387 198.418C87.5137 198.346 87.7009 198.309 87.8902 198.309H95.7202C96.8877 199.477 97.2502 201.107 96.5327 202.302Z" fill="#D7E8F0"/>
<path d="M96.5329 202.302C96.5004 202.381 96.4574 202.455 96.4054 202.522C95.4054 203.897 93.2404 204.022 91.5554 202.795C91.3514 202.643 91.1594 202.475 90.9804 202.295C89.8229 201.127 89.4679 199.497 90.1604 198.295C90.2004 198.218 90.2464 198.144 90.2979 198.075C91.2979 196.707 93.4704 196.575 95.1554 197.812C95.3561 197.958 95.5449 198.119 95.7204 198.295C96.8879 199.477 97.2504 201.107 96.5329 202.302Z" fill="white"/>
<path d="M101.438 211.045H92.623C91.982 211.044 91.355 210.858 90.8178 210.508C90.2803 210.159 89.8558 209.661 89.5955 209.075C89.4963 208.856 89.454 208.615 89.4725 208.375C89.4913 208.134 89.57 207.903 89.7017 207.701C89.8337 207.5 90.0142 207.334 90.2267 207.221C90.4395 207.108 90.677 207.05 90.918 207.053H100.618C99.923 208.25 100.28 209.878 101.438 211.045Z" fill="#3FBDF1"/>
<path d="M115.723 209.615C115.721 209.995 115.568 210.359 115.298 210.627C115.028 210.895 114.663 211.045 114.283 211.045H101.438C100.28 209.877 99.9225 208.247 100.618 207.045H112.568C113.21 207.045 113.838 207.232 114.376 207.583C114.913 207.934 115.337 208.434 115.595 209.022C115.677 209.209 115.721 209.411 115.723 209.615Z" fill="#D7E8F0"/>
<path d="M107 211.045C106.96 211.122 106.914 211.195 106.863 211.265C105.863 212.64 103.7 212.765 102.013 211.538C101.81 211.385 101.619 211.218 101.44 211.038C100.283 209.87 99.9255 208.24 100.62 207.038C100.659 206.96 100.704 206.887 100.755 206.818C101.755 205.45 103.928 205.333 105.615 206.555C105.816 206.701 106.005 206.862 106.18 207.038C107.345 208.22 107.7 209.86 107 211.045Z" fill="white"/>
<path d="M40.4028 131.343L40.6228 131.405L40.5403 131.725C40.4881 131.6 40.4421 131.472 40.4028 131.343Z" fill="#353642"/>
<path d="M79.5268 151.344C82.8178 150.378 84.5468 146.397 83.389 142.453C82.2313 138.509 78.625 136.095 75.3343 137.061C72.0433 138.027 70.3143 142.008 71.472 145.952C72.6298 149.896 76.236 152.31 79.5268 151.344Z" fill="#D7E8F0"/>
</svg>
